# xmcd CD database file
#
# Track frame offsets:
#	150
#	30775
#	52037
#	66112
#	88187
#	105200
#	119037
#	144450
#	158587
#	175700
#	189725
#	204275
#
# Disc length: 2976 seconds
#
# Revision: 0
# Processed by: cddbd v1.4PL0 Copyright (c) Steve Scherf et al.
# Submitted via: CDex 1.51
#
DISCID=990b9e0c
DTITLE=Vrious Artists - Bllades
DYEAR=2001
DGENRE=Jazz
TTITLE0=Misty
TTITLE1=But Beautiful
TTITLE2=Round Midnight
TTITLE3=Stella by Starlight
TTITLE4=Danny Boy
TTITLE5=Tenderly
TTITLE6=Here's to Life
TTITLE7=The Meaning of the Blues
TTITLE8=Georgia on My Mind
TTITLE9=I'm Sorry
TTITLE10=Memories of You
TTITLE11=Greensleeves
EXTD=YEAR: 2001
EXTT0=
EXTT1=
EXTT2=
EXTT3=
EXTT4=
EXTT5=
EXTT6=
EXTT7=
EXTT8=
EXTT9=
EXTT10=
EXTT11=
PLAYORDER=
